<!DOCTYPE svg PUBLIC "-//W3C//DTD SVG 1.1//EN" "http://www.w3.org/Graphics/SVG/1.1/DTD/svg11.dtd" [
	<!ENTITY ns_extend "http://ns.adobe.com/Extensibility/1.0/">
	<!ENTITY ns_ai "http://ns.adobe.com/AdobeIllustrator/10.0/">
	<!ENTITY ns_graphs "http://ns.adobe.com/Graphs/1.0/">
	<!ENTITY ns_vars "http://ns.adobe.com/Variables/1.0/">
	<!ENTITY ns_imrep "http://ns.adobe.com/ImageReplacement/1.0/">
	<!ENTITY ns_sfw "http://ns.adobe.com/SaveForWeb/1.0/">
	<!ENTITY ns_custom "http://ns.adobe.com/GenericCustomNamespace/1.0/">
	<!ENTITY ns_adobe_xpath "http://ns.adobe.com/XPath/1.0/">
]><svg id="Layer_1" xmlns:x="&ns_extend;" xmlns:i="&ns_ai;" xmlns:graph="&ns_graphs;" xmlns="http://www.w3.org/2000/svg" xmlns:xlink="http://www.w3.org/1999/xlink" viewBox="0 0 240 234" style="enable-background:new 0 0 240 234"><style>.st0{fill:#49021f}.st1{fill:#f36}</style><g><path class="st0" d="M42.5.0h155C221 0 240 19 240 42.5v149c0 23.5-19 42.5-42.5 42.5h-155C19 234 0 215 0 191.5v-149C0 19 19 0 42.5.0z"/><g id="Outlined_Mnemonics_Logos"><g id="Id"><path class="st1" d="M87.2 61.2v102.6c0 1.1-.5 1.6-1.4 1.6H66.2c-.9.0-1.3-.5-1.3-1.6V61.2c0-.9.5-1.3 1.4-1.3h19.5c.6-.1 1.2.3 1.3 1C87.2 61 87.2 61.1 87.2 61.2z"/><path class="st1" d="M144.8 167c-7.4.1-14.8-1.4-21.5-4.5-6.3-2.9-11.5-7.7-15.1-13.6-3.7-6.1-5.5-13.7-5.5-22.8-.1-7.4 1.8-14.7 5.5-21.1 3.8-6.5 9.3-11.9 15.9-15.5 7-3.9 15.4-5.8 25.3-5.8.5.0 1.2.0 2.1.1.9.1 1.9.1 3.1.2V52.4c0-.7.3-1.1 1-1.1h20.3c.5-.1.9.3 1 .7.0.1.0.2.0.2v95.2c0 1.8.1 3.8.2 6 .2 2.1.3 4.1.4 5.8.0.7-.3 1.3-1 1.6-5.2 2.2-10.7 3.8-16.3 4.8C155.2 166.5 150 167 144.8 167zM154.6 147v-44c-.9-.2-1.8-.4-2.7-.5-1.1-.1-2.2-.2-3.3-.2-3.9.0-7.8.8-11.3 2.6-3.4 1.7-6.3 4.2-8.5 7.4-2.2 3.2-3.3 7.5-3.3 12.7-.1 3.5.5 7 1.7 10.3 1 2.7 2.5 5.1 4.5 7.1 1.9 1.8 4.2 3.2 6.8 4 2.7.9 5.5 1.3 8.3 1.3 1.5.0 2.9-.1 4.2-.2C152.3 147.6 153.5 147.4 154.6 147z"/></g></g></g></svg>