<svg xmlns="http://www.w3.org/2000/svg" width="64" height="64"><path d="M2.667 3.467h58.667v57.067H2.667z" fill="#261300"/><path d="M0 .8v62.4h64V.8zm2.667 2.667h58.667v57.067H2.667zm19.546 32.666-2.107 8c-.053.213-.133.267-.4.267h-3.92c-.267.0-.32-.08-.267-.4l7.573-26.507c.133-.48.213-.907.267-2.213.0-.187.08-.267.213-.267h5.6c.187.0.267.053.32.267l8.48 28.773c.053.213.0.347-.213.347h-4.427c-.213.0-.347-.053-.4-.24l-2.213-8.027zm7.413-4.32L26.453 19.28H26.4c-.56 3.12-1.973 8.4-3.093 12.533zm12-14.827c0-1.707 1.2-2.72 2.72-2.72 1.627.0 2.72 1.093 2.72 2.72.0 1.76-1.147 2.72-2.773 2.72-1.547.0-2.667-.96-2.667-2.72zm.32 6.053c0-.213.08-.32.32-.32h4.187c.213.0.32.08.32.32v21.04c0 .213-.053.32-.32.32H42.32c-.267.0-.347-.133-.347-.347V23.04z" fill="#ff7c00"/></svg>