<svg xmlns="http://www.w3.org/2000/svg" width="64" height="64" viewBox="0 0 6.554 6.551" preserveAspectRatio="xMidYMid"><path d="M5.664 1.036 2.437 4.524l4.055-1.87a3.27 3.27.0 0 0-.828-1.617zM3.27-.001A3.27 3.27.0 0 0 2.009.25l-.433 3.648L3.74.033a3.3 3.3.0 0 0-.469-.034zm3.254 2.856-3.842 2.15 3.605-.428a3.27 3.27.0 0 0 .266-1.295 3.01 3.01.0 0 0-.03-.427zM5.108 6.002a3.3 3.3.0 0 0 1.037-1.136l-3.38.67zM3.937.067l-1.88 4.076L5.545.916a3.28 3.28.0 0 0-1.608-.85zm-.393 6.486a3.26 3.26.0 0 0 1.03-.258L2.682 6.07l.862.482zM.277 1.932A3.26 3.26.0 0 0 0 2.987l.5.9zM1.724.385A3.3 3.3.0 0 0 .567 1.418l.476 2.396z" fill="#c7402b"/></svg>