<svg xmlns="http://www.w3.org/2000/svg" width="64" height="64"><path d="M7.403 38.124l-.316.86-.606-.222.316-.86zm-.316.86-.47 1.28-.617-.22.47-1.28zm-.47 1.28-.076.117-.227-.228zm-.076.117-1.033 1.023-.454-.457 1.033-1.023zm-1.033 1.023-.916.907-.454-.457.916-.907zm-.916.907-.23.224-.447-.467.22-.214zm-.23.224c-.413.398-.495.477-.376 1.188l-.636.106c-.175-1.048-.053-1.166.566-1.76zm-.376 1.188a5.74 5.74.0 0 0 .585 1.725l-.573.3a6.4 6.4.0 0 1-.648-1.92zm.585 1.725c.277.528.647 1.04 1.118 1.512l-.457.454a6.92 6.92.0 0 1-1.234-1.666zM5.7 46.96c.603.605 1.587 1.354 2.612 1.743l-.227.604c-1.12-.425-2.2-1.238-2.842-1.892zm2.6 1.743c.713.27 1.44.364 2.046.095l.26.6c-.783.347-1.676.243-2.533-.083zm2.046.095.624-.276-.182.657-.312-.086zm.442.38-.285.895-.6-.22.27-.847zm-.285.895-.347.85-.588-.268.326-.802zm-.347.85c-.546 1.197.026 1.828.913 2.232l-.268.588c-1.2-.547-2-1.417-1.23-3.083zm.913 2.232c.567.258 1.253.437 1.9.603l-.162.624c-.67-.174-1.4-.362-1.996-.638zm1.9.603.45.118-.164.624-.446-.118zm.45.118c.77.208 2.097.6 3.292.665l-.04.646c-1.252-.08-2.622-.473-3.416-.687zm3.292.665c1.08.068 2.042-.113 2.265-.94l.624.164c-.33 1.227-1.563 1.5-2.93 1.422zm2.265-.94a6.36 6.36.0 0 0 .215-1.1l.646.053c-.03.364-.106.737-.237 1.223zm.215-1.1c.03-.337.017-.664-.025-1.08l.64-.06a6.37 6.37.0 0 1 .03 1.193zm-.025-1.08.025-.162.295.13zm.025-.162c.435-.97.614-1.233.93-1.696l.533.364c-.293.428-.458.67-.872 1.595zm.93-1.696.14-.208.535.36-.144.2zm.14-.208c.247-.366.36-.6.397-.863l.64.088c-.052.362-.195.683-.5 1.136zm.397-.863c.038-.266.0-.582-.058-1.067l.64-.073c.063.532.105.88.055 1.23zm-.058-1.067-.038-.305.64-.08.04.313zm-.038-.305-.046-.32.64-.093.046.33zm-.046-.32-.063-.43.43.065-.048.32zm.367-.366a18.95 18.95.0 0 0 2.704.211l-.003.646a19.58 19.58.0 0 1-2.797-.219zm2.704.2a20.49 20.49.0 0 0 2.683-.162l.076.64c-.925.115-1.842.173-2.762.167zm2.683-.162.2.6-.162-.28zm.2.6-1.707.913-.295-.576 1.68-.898zm-1.707.913-.148.076-.295-.576.148-.076zm-.148.076c-.683.35-.7 1.088-.448 1.86l-.616.192c-.33-1.057-.286-2.085.768-2.628zm-.448 1.86c.274.876.855 1.798 1.22 2.36l-.54.35c-.384-.592-.997-1.565-1.295-2.52zm1.22 2.36c.763 1.176 1.483 2.167 2.3 2.674l-.336.55c-.935-.573-1.706-1.627-2.515-2.873zm2.3 2.674c.78.48 1.694.523 2.904-.13l.306.57c-1.446.782-2.565.712-3.545.1zm2.904-.13c.572-.3.764-.645 1.022-1.098l.563.318c-.312.547-.544.953-1.28 1.35zm1.022-1.098.38-.624.535.358-.353.584zm.38-.624.112-.105.155.284zm.112-.105c.2-.104.995-.77 1.78-1.417l.412.497-1.88 1.488zm1.78-1.417 1.008-.83.406.505-1.003.822zm1.008-.83.248-.2.204.245-.25.207zm.452.045c.13.155.333.25.6.317l-.15.63c-.413-.1-.73-.258-.958-.53zm.6.317c.318.076.736.113 1.242.15l-.046.646c-.53-.038-.974-.078-1.346-.167zm1.242.15c.397.03 1.665.028 2.484.028v.646c-.837.0-2.132.001-2.53-.028zm2.484.028.605.001-.003.646h-.602v-.646zm.605.001c.763.005 1.368-.03 1.768-.256l.318.563c-.527.3-1.225.344-2.088.34l.003-.646zm1.768-.256c.365-.207.584-.614.64-1.376l.646.046c-.072 1-.405 1.575-.967 1.894zm.64-1.376c.028-.4.035-.625-.01-.825l.63-.14c.062.283.057.56.025 1zm-.01-.825c-.044-.2-.148-.408-.34-.75l.566-.316c.22.394.343.643.405.926zm-.34-.75-.04-.15.323-.008zm-.04-.15-.037-1.392.646-.015.037 1.392zm-.037-1.392-.037-1.4.646-.015.037 1.4zm-.037-1.4a5.64 5.64.0 0 0-.166-1.286l.626-.157a6.32 6.32.0 0 1 .186 1.428zm-.166-1.286c-.1-.4-.247-.783-.447-1.26l.596-.25.477 1.352zm-.447-1.26-.38-.983.606-.222.37.956zm.225-1.207-.303.1zm-.606.225-.627-1.5.578-.3c.276.545.463 1.048.655 1.566zm-.627-1.5-.03-.2.318.056zm-.03-.2.08-.5.64.08-.08.53zm.08-.5.056-.52.646.053-.063.548zm.056-.52.06-.676.487.47-.224.234zm.546-.207.95.915-.447.467-.95-.915zm.95.915.7.684-.447.467-.7-.684zm.7.684c.512.494.98.942 1.5 1.25l-.328.558c-.582-.343-1.077-.818-1.62-1.34zm1.5 1.25a3.08 3.08.0 0 0 1.795.43l.03.646a3.71 3.71.0 0 1-2.154-.519zm1.795.43c.8-.037 1.643-.376 2.353-.9l.384.52c-.808.596-1.8.983-2.706 1.026zm2.353-.9c.677-.5 1.217-1.162 1.436-1.883l.62.187c-.262.86-.9 1.64-1.67 2.216zm1.436-1.883.227-.747.62.187-.227.747zm.227-.747.264-.87.62.187-.264.87zm.264-.87.084-.277.284.054-.06.317zm.37-.223c1.3.247 2.734.334 4.103.2l.063.64c-1.432.15-2.92.06-4.285-.198zm4.103.2c1.203-.126 2.364-.432 3.36-.964l.303.57c-1.072.572-2.315.9-3.6 1.035zm3.36-.964c1.46-.78 2.56-1.932 3.35-3.3l.56.32c-.85 1.47-2.03 2.7-3.606 3.55zm3.35-3.3.28.16-.28-.16zm0-.001c.903-1.564 1.4-3.4 1.6-5.3l.64.06c-.202 1.993-.733 3.93-1.682 5.573zm1.6-5.3c.157-1.55.07-3.662-.254-5.705l.636-.1c.333 2.095.42 4.268.26 5.867zm-.254-5.705c-.286-1.802-.756-3.545-1.406-4.788l.573-.298c.68 1.304 1.172 3.117 1.47 4.985zM61.6 17.496a1.27 1.27.0 0 0-.244-.31l.452-.462a1.97 1.97.0 0 1 .365.475zm-.244-.3a3.09 3.09.0 0 0-1.115-.679l.2-.6a3.76 3.76.0 0 1 1.357.828zm-1.115-.68c-.396-.136-.794-.174-1.08-.025l-.298-.573c.46-.24 1.038-.202 1.586-.013zm-1.08-.025a.64.64.0 0 0-.165.122l-.462-.452c.1-.1.2-.18.33-.243zm-.165.122c-.264.268-.496.607-.73.946l-.533-.364c.25-.367.502-.733.8-1.034zm-.73.946c-.306.447-.613.895-1 1.235l-.42-.492c.336-.287.617-.698.897-1.106zm-1 1.235c-.487.416-1.05.642-1.575.852l-.24-.6c.477-.2 1-.397 1.396-.744zm-1.575.852-.238.096-.245-.598.243-.098zm-.238.096-.3.127-.117-.315.303-.1zm-.425-.188a8.32 8.32.0 0 0-.762-1.542l.548-.343a8.96 8.96.0 0 1 .82 1.663zm-.762-1.542a12.23 12.23.0 0 0-1.013-1.37l.495-.414a12.89 12.89.0 0 1 1.066 1.441zm-1.013-1.37a5.24 5.24.0 0 0-.87-.83l.4-.513c.34.258.652.546.974.93zm-.87-.83c-.302-.23-.644-.445-1.044-.696l.343-.548 1.092.73zm-1.044-.696c-1.127-.706-2.07-1.534-3.035-2.38l.424-.487c.943.828 1.868 1.64 2.954 2.32zm-3.035-2.38-1.273-1.092.412-.5 1.285 1.105zm-1.273-1.092c-2.134-1.76-4.1-2.613-6.2-2.745l.04-.646c2.24.14 4.336 1.04 6.582 2.9zM40.83 8.9c-2.115-.133-4.376.46-7.06 1.6l-.25-.596c2.774-1.168 5.125-1.78 7.35-1.64zm-7.06 1.6c-1.265.532-2.2 1.158-3.013 1.9l-.437-.475c.866-.8 1.86-1.467 3.2-2.03zm-3.013 1.9c-.818.757-1.522 1.65-2.3 2.706l-.518-.386c.808-1.08 1.532-2 2.4-2.795zm-2.3 2.706-.1.122-.15.008-.016-.323zm-.242.13c-.45.023-.826.078-1.2.227l-.24-.6c.453-.18.9-.246 1.407-.273zm-1.2.227c-.38.152-.772.406-1.25.83l-.427-.485c.54-.477 1-.767 1.438-.946zm-1.25.83-1.066.988-.45-.465 1.106-1.022zm-1.066.988-.225-.234.225.232zm-.001.001-1.028 1.035-.467-.447 1.05-1.055zm-1.028 1.035-.183.095-.05-.318zm-.183.095c-2.526.403-4.573.844-6.402 1.553l-.232-.604c1.87-.724 3.958-1.175 6.533-1.586zm-6.402 1.553c-1.813.702-3.413 1.67-5.058 3.13L11.6 22.6c1.707-1.513 3.368-2.518 5.253-3.248zM12 23.08a13.18 13.18.0 0 0-1.743 1.87l-.513-.4a13.82 13.82.0 0 1 1.829-1.963zm-1.743 1.87c-.502.657-.933 1.353-1.312 2.1l-.576-.293a15.07 15.07.0 0 1 1.375-2.2zm-1.312 2.1-.048.07-.24-.216zm-.048.07L7.77 28.292l-.432-.482c.38-.342.73-.734 1.08-1.12zM7.77 28.292c-.412.37-.86.687-1.376.886l-.232-.604c.43-.166.816-.44 1.177-.765zm-1.376.886H6.4l-.115-.302zm-.001.0c-.415.16-.617.24-.847.142l.25-.596c.01.004.115-.053.367-.15zm-.847.142h-.001l.126-.297-.125.298zm-.001-.001c-.242-.103-.3-.302-.46-.702l.606-.225c.085.227.083.324.106.333zm-.46-.702L5 28.392l.194-.146.193.26zm.1-.37c.594-.446.65-1.335.704-2.2l.646.04c-.063 1-.13 2.04-.964 2.668zm.704-2.2.02-.308.646.046-.02.303zm.02-.308.023-.315.315.015-.015.323zm.338-.3c.533.025.776.4 1.038.807l-.543.35c-.167-.26-.323-.5-.525-.5zm1.038.807.228.33-.505.4a4.77 4.77.0 0 1-.266-.383zm.3.6-.148.66-.42-.53.252-.2zm-.63-.14c.1-.488.193-1.128.075-1.652l.63-.14c.144.64.052 1.378-.072 1.932zm.075-1.652c-.075-.333-.236-.62-.535-.774l.295-.576c.494.256.754.7.868 1.2zm-.535-.774-.256-.132.1-.268.303.112zm-.155-.4.2-.487.6.235-.183.477zm.2-.487.296-.785.6.212-.306.808zm.547-.997.542-.094-.182.518-.306-.106zm.1.636c-.626.1-2.004.882-3.004 1.92l-.467-.447c1.1-1.133 2.642-1.985 3.363-2.1zm-3.004 1.92c-.363.376-.67.783-.864 1.197l-.586-.27c.23-.488.577-.953.983-1.374zM3.32 26.15c-.185.395-.27.8-.202 1.192l-.636.1c-.092-.532.014-1.063.252-1.57zm-.202 1.192c.062.357.253.715.614 1.063l-.447.467c-.468-.45-.718-.93-.803-1.42zm.614 1.063.1.156-.313.077zm.1.156.236.87-.616.192-.246-.9zm.236.87a4.99 4.99.0 0 0 .265.681l-.583.278a5.63 5.63.0 0 1-.298-.767zm.265.68c.232.483.6.778 1.024.914l-.197.616c-.586-.188-1.093-.592-1.4-1.252zm1.024.914c.494.16 1.07.1 1.607-.1l.235.6c-.672.262-1.4.32-2.04.115zm1.607-.1.56-.22-.128.587-.316-.068zm.433.37c-.152.698-.244 1.43-.275 2.257l-.646-.023a13.31 13.31.0 0 1 .29-2.371zM7.1 33.56c-.03.827.001 1.755.094 2.845l-.646.053c-.095-1.105-.126-2.057-.094-2.92zm.094 2.845.085.767-.64.086-.093-.8zm.085.767.132.8-.634.12-.137-.824zm.132.8-.014.172-.303-.1"/><g fill-rule="evenodd"><path d="M23.586 18.594l-4.255.7-3.883 1.702-3.298 2.074-3.138 3.83-1.773 1.878-1.714.632-.453-1.108.793-1.144.178-1.614.53.02.58.53-.156-1.644-.643-.43.02-.626-1.523.862-1.38 1.628-.288 1.455.6 1.165.55 1.98 1.12.53 1.177-.058 1.116-.65L7 34.072l.745 4.202-.82 1.94-2.685 2.892.477 1.728L6 46.837l2.398 1.688 1.272.174 1.414.048-.882 3.622 3.244 1.33 4.042.532 1.383-.904.106-2.447 1.543-2.553.106-2.02 3.723.266 3.457-.32-3.457 2.074.585 2.5 2.18 3.404 2.128.904 1.702-.7.7-1.383 3.564-2.713.7.585 5.585.213 1.117-.904.106-1.596-.372-.7-.266-4.308-1.862-3.723.32-1.65 1.117.585 3.138 2.925 1.542.106 1.702-.7 1.702-1.276.85-2.766 5 .32 3.032-1.17 2.447-2.287 1.755-3.298.426-3.883-.372-4.52-.957-4.042-.957-1.277-1.33-.426-2.34 2.553-2.127.745-1.862-3.085-1.862-1.702-1-.638-4.042-3.35-3.244-1.755-3.244-.266-3.776.638-3.298 1.223-2.287 1.862-1.808 2.18-1.862.532z" stroke-miterlimit="10" fill="#feeb50" stroke="#1f1917" stroke-width=".095"/><g fill="#fdf7ba"><path d="M11.245 28.196C7.6 32.447 8.4 37.603 9.42 42.655L7.803 38.57l-.596-3.746.17-3.83 1.532-3.66 2.3-3.405 3.575-2.98L18.7 19.33l4.597-.596-4.256 4.852c-3.417 1.108-5.433 1.855-7.794 4.6"/><path d="M28.402 15.243c-2.534 2.472-3.918 4.337-5.53 7.23l-3.66 6.106c-.613 1.033-.67 1.9-.855 3.092l-1.788-2.128.85-2.554 2.894-5.193 6.13-6.044 1.958-.5m12.515-6.13c-2.03.76-5.4 1.012-5.634 3.34-.167 1.654.125 2.485 1.122 4.235-2.463-2.548-3.072-2.154-7.83-1.362l2.043-2.894 3.575-2.213 4.597-1.022 2.128-.085"/></g><g fill="#edd749"><path d="M46.515 40.62c.676.417.66.72.548 1.005l1.6-.64 1.036-1.4.77-1.982-.982-.74-4.294.548-.32.868.1 1.233.4.73.64.32.503.046m-.4-7.34c-2.152.62-2.136.792-2.77 2.928.84-1.346 1.46-2.026 2.77-2.928M60.43 17.3c-.383.177-.755.262-.994.612-.515.753-.956 1.387-1.808 1.916-.43.266-.872.44-1.327.58-.377.117-.604.013-.925.243l.57.1h1.26l1.553-.96.914-.96.756-1.533m-34.286 4.777c-.847 2.317-1.587 4.303-2.87 6.4a19.17 19.17.0 0 0 3.582-5.28c.366-.778.435-1.7 1.453-1.35.046.777.2 1.553.256 2.33.55-3.945 2.102-5.595 5.7-7.126l-3.06.365-2.878.64L26.9 20.1l-.777 1.964m7-.08c.778 3.662 1.898 7.176 2.385 10.896.316 2.417.35 3.578-.866 5.664-1.33-.086-2.154.064-3.44.485-5.118 1.678-8.053 4.145-11.502-.826l3.303 1.556 2.354-.463 4.157-2.42 3.243-.64 1.05-4.385-.777-5.802-.1-2.74.183-1.325m8.813 22.657c-.43 2.975 1 4.574.402 5.396-.167.233-.392.638-.644.75-.9.397-2.136-.074-2.225.158H36.5l-1.188-.503 1.827-2.147 1.782-3.883 1.142-3.928h.594l1.28 4.157"/><path d="M36.956 35.993c.24 1.35.66 1.672 1.295 2.98-.423 2.133-1.102 4.67-1.92 6.552-.345.794-.623 1.23-1.23 1.845-1.026 1.036-2.064 1.94-3.228 2.838-.838.646-1.423.322-2.456.176-.44.797-.56 1.24-1.37 1.644-1.244.622-2.358-.72-3.335-1.507l2.115 3.304 1.462 1.37 1.233.183 1.644-1.005.868-1.644 1.827-1.37 2.238-1.92 1.416-2 1.28-2.375 1.645-4.933.137-1.873-2.056-.914-1.565-1.34M20.57 45.508c2.306.0 4.74-.128 6.852-1.096.598-.897 1.187-1.63 1.92-2.42-.665 1.257-.874 1.967-1.05 3.38l-.685 1.005-5.207.137-1.7-.183-.183-.183.046-.64M20.25 43.9l-.18-1.622c-.394 2.37-.3 3.96-1.4 6.084-.815.944-1.82 1.804-2.968 2.264.097.582.126.946.07 1.373-.202 1.536-3.275.857-4.538.796l6.082 1.566 1.37-.548.457-2.65 1.28-2.375.228-1.462-.4-3.426m-3.417-13.375c-.064 1.153-.138 1.633.37 2.652.646 1.294 1.44 2.5 2.142 3.8l.228-2.558-2.74-3.883m-9.387 8.698-.593 1.263c.544 1.833 1.028 2.995 2.064 4.596-.18.65-.316.933-.73 1.462-.912-.14-1.722-.18-2.646-.178l3.06 2.375 1.507-.274 1.507-1.507-2.147-3.335-2.023-4.402M60.433 16.7c.62 2.796 1.423 5.375 1.348 8.238-.1 3.512-.776 7.95-4.03 10.068-3.645 2.372-7.923 1.25-11.922.234l4.888 2 4.568.228 3.106-.914 2.42-2 1.827-3.837.685-4.43-.548-4.34-1.005-4.294-1.34-.952M6.045 25.02C4.4 26.1 3.74 26.57 3.922 28.567l.495 1.793.7.474.866.288 1.567-.37.804-2.494-2.226 1.093h-.515l-.577-.886.7-1.03.37-1.958.474.144.577.454-.083-1.03-.392-.66-.392-.33-.247.97M43.165 9.298c1.468 1.364 3.27 2.55 4.445 4.215.455.645.96.975-.008 1.886 1.022-.292 1.402-.26 2.22-.16 1.488.18 2.883 2.296 2.972 3.812-.018.142-.413.464-1.564.78-.023.044-.65-.086-.634-.043.12.327.28.377.523.53.053.364.087.925.335 1.323a9.98 9.98.0 0 1 2.14.207c.24.396.203.792.183 1.188l.822-.137-.228-1.873.73-1.233-1.05-2.375-2-1.92-.194-.01-2.26-1.387-3.687-3.016-2.737-1.787m2.465 11.252c-.077.135-.194.352-.344.502.612.58.913.966 1.13 1.784l-2.074 1.03-1.755 1.683c-.77-.415-.962-.733-1.335-1.523-.434.115-.845.225-1.203.094.227.002.367-.055.594-.196l1.117-1.16 1.973-1.494 1.3-.42c.164-.068.44-.23.605-.3"/><path d="M47.55 22.614C45.35 23.8 43.244 25 42.12 27.24c0-2.855 2.867-4.112 5.432-4.625m-5.872-5.618c-1.633 1.114-2.788 3.36-2.643 5.552-.532-1.897-.344-3.7 1.3-5l.827-.402.526-.15"/></g><path d="M44.8 33.905l1.288-.62-1.317.245c-.928.157-1.037.38-1.18 1.293l-.23 1.394.613-1.516c.224-.5.35-.537.826-.796zm-17.2-23.52c.73-1.093 1.15-1.45 2.27-2.142-1.523.367-1.814.65-2.27 2.142zm-.24 2.4c1.276-2.564 2.242-3.5 4.912-4.768-3.02.74-3.9 1.267-4.912 4.768zM.032 26.14c.28-1.284.54-1.77 1.333-2.823C.08 24.215-.087 24.584.032 26.14zm28.593 21.492-.116-.935c-.07-.565-.067-1.023-.022-1.592l.13-1.65c-.16.56-.48 1.118-.64 1.677l-.147.572c-2.4.488-4.763.52-7.154.092l-.494-2.47c-.047.74-.017 2.788-.02 3.934-.003.888-.04 1.192-.498 1.948-.43.707-.6.868-1.2 2.063.05.754.05 1.253-.15 1.968-.333 1.2-3.694.268-4.58.025-1.092-.3-3.35-.743-2.782-2.2.5-1.28.816-2.632 1.06-4.424-2-2.882-3.86-6.83-4.218-10.33-.277-2.717-.1-4.4.477-6.05.932-2.633 2.235-4.912 4.326-6.748 2.82-2.475 5.458-3.47 9.586-4.098-.993 1.1-1.975 2.287-3.046 3.547-1.084 1.276-1.728 2.564-2.416 3.96-.95 1.927-.93 2.66.33 4.353 1.086 1.458 1.672 2.115 2.147 3.54-.392.807-.534 1.5-.666 2.592 1.33 1.453 2.318 2.45 3.6 2.757 1.266.3 2.324.243 3.457-.336 2.517-1.287 4.845-2.948 7.684-3.017 1.313-3.23 1.18-5.927.55-9.05-.43-2.133-.603-4.153-.737-6.33-.532 2.24-.632 4.2-.237 6.44.476 2.7.846 5.66-.478 8.023-2.567.197-4.767 1.758-7.08 2.956-.93.482-1.898.53-2.927.246-.955-.262-1.6-.894-2.63-2.082-.016-1.192.253-1.742.8-2.82.88-1.733 1.85-3.347 2.915-5.053-1.304 1.574-2.54 2.9-3.567 4.473-.392-1.118-.953-1.686-1.883-2.944-.908-1.23-1.003-1.768-.324-3.2s1.26-2.687 2.423-3.94c2.007-2.168 3.846-4.58 6.04-6.715 1.192-1.16 1.676-1.12 3.257-1.36 1.43-.217 2.824-.5 4.28-.83-1.4.13-2.772.18-4.144.214l-.043.001c1.35-1.724 2.133-2.685 4.326-3.637 5.398-2.344 8.828-2.598 13.068.966 1.1.924 2.06 1.82 3.173 2.618a4.03 4.03.0 0 0-1.213.288c.56-.107 1.208-.001 1.8.105a13.94 13.94.0 0 0 .503.311c.786.463 1.233.72 1.765 1.46.562.783 1.03 1.566 1.444 2.43l-.7-.24a1.5 1.5.0 0 0-1.42.088l-.033.015c-.435.212-1.1.453-1.56.527.23.08.74.1.98.014a.72.72.0 0 1 .098-.031 1.5 1.5.0 0 0-.041 1.456l.001.003c.04.096.097.184.16.248a12.43 12.43.0 0 0-.634.257c1.006-.153 1.913-.18 2.895-.05l.2.97-.365.028-.03.003c-.464-.37-.982-.3-1.7-.148-2.15.5-1.645 1.697-2.634 3.515 1.027-1.256.95-2.57 2.625-2.965.4-.092.656-.208.92-.168-.475.24-.886.635-1.05 1.095-.46 1.297-.174 2.4-.68 3.602.625-1.083.663-2.14 1.222-3.28.2-.4.946-1.065 1.403-1.075l.376-.008c.1.72.177 1.437.134 2.03-.078 1.084-.36 2.692-.528 3.307.566-.728.824-2.27 1.073-3.355.26-1.13.194-2.486-.033-3.7-.3-1.666 1.404-1.395 2.4-2.18.732-.577 1.236-1.5 1.907-2.152.666-.647 1.714.304 1.976.937 1.136 2.747 1.653 7.07 1.353 9.84-.337 3.108-1.838 6.5-4.58 8.03-3.494 1.95-7.614.76-11.085-.4-.74-.25-1.256-.613-1.907-1.024.177.798.258 1.644.022 2.44-.375 1.265-.98 3.335.74 3.717.654.145.95.124 1.873-.352a3.44 3.44.0 0 1-1.637.033c-.465-.086-.712-.38-.842-.73.163.117.428.18.88.3 1.274.307 2.487-.306 2.724-1.2.138-.516.115-.787.408-1.5.263.08.536.155.815.223l-.473 1.543c-.4 1.335-2.004 2.412-3.412 2.387-1.302-.023-2.127-.838-3.025-1.638l-1.805-1.6a13.69 13.69.0 0 1-4.422-2.222c1.07 1.257 1.796 1.954 3.288 2.58-.217 2.214-.986 3.828-1.642 5.946-.297.958-2.64 4.796-3.3 5.17-.463.267-3.364 2.7-3.9 3.032-.406.54-.763 1.285-1.374 1.608-1.862.984-3.058-.9-4.06-2.493-.456-.725-1.723-2.814-.62-3.4 1.044-.553 1.63-.948 2.694-1.647.156.285.425.56.6.845zm6.472 3.375c-.943.76-2.528 2.1-2.835 2.278-.557.83-.626 1.345-1.518 1.828-2.656 1.437-4.065-.23-5.637-2.652-.75-1.154-2.387-3.8-.65-4.683.732-.376 1.287-.66 1.84-.98-1.823.226-3.613.23-5.473-.05l.085.634c.12 1.017.16 1.328-.392 2.147-.403.597-.558.77-1.044 1.856a5.41 5.41.0 0 1-.199 2.303c-.553 2.053-4.388.928-5.95.505-1.88-.508-4.566-.982-3.464-3.4.258-.566.46-1.146.614-1.698-1.644.728-3.928-.816-5.017-1.907-1.035-1.038-1.597-2.243-1.793-3.412-.167-.995-.014-1 .696-1.694l1.95-1.93.787-2.14c-.102-.533-.178-1.065-.223-1.6-.2-2.195-.125-3.758.188-5.196-1.144.446-2.456.237-3.04-.977-.222-.462-.354-.932-.522-1.614-2.552-2.46 2.23-5.68 3.625-5.924-.16.453-.334.868-.488 1.28.946.5.83 1.885.63 2.784-.34-.43-.528-1-1.03-1.015-.073 1.016-.06 2.14-.854 2.735.235.628.223.628.9.372.948-.365 1.662-1.178 2.38-1.972.773-1.507 1.765-2.847 3.13-4.056 3.352-2.972 6.52-3.944 11.622-4.757a35.29 35.29.0 0 1 2.134-2.057c1.02-.9 1.683-1.087 2.648-1.138 1.597-2.136 2.854-3.624 5.457-4.72 5.458-2.297 9.22-2.408 13.6 1.204 1.448 1.193 2.682 2.45 4.273 3.448.805.504 1.38.867 2 1.594.768.915 1.395 1.83 1.83 3.007.564-.232 1.207-.45 1.726-.894.67-.573 1.097-1.53 1.718-2.16.824-.835 2.704.173 3.12.97 1.416 2.7 1.995 7.703 1.694 10.672-.372 3.67-1.885 7.14-5.12 8.867-2.2 1.173-5.15 1.282-7.676.805l-.5 1.616c-.5 1.614-2.408 2.933-4.083 3.012-1.608.076-2.48-.754-3.534-1.77l-1.66-1.6a12.1 12.1.0 0 1-.139 1.048c.436.86.645 1.616 1.018 2.503.4.976.6 1.617.638 2.662l.074 2.783c.414.735.45.914.4 1.755-.127 1.773-1.104 1.942-2.73 1.932-.542-.004-2.6.01-3.1-.028-1.037-.075-1.72-.154-2.078-.582zm5.487-9.672c-.327 1.17-.767 2.273-1.17 3.538-.38 1.197-2.33 4.675-3.477 5.517.223.166.633.23 1.364.294.517.045 2.554.054 3.065.063 1.126.02 1.553-.065 1.667-1.347.056-.628.007-.745-.307-1.295l-.083-2.945c-.026-.93-.205-1.466-.57-2.334-.22-.52-.338-1.003-.488-1.492zm-34.3-16.06c.253-.03.4.104.605.3-.036-.467-.122-.813-.45-1.004a5.55 5.55.0 0 0-.065.23 5.98 5.98.0 0 0-.1.476zm1.588 3.373a24.96 24.96.0 0 0-.51 1.457l-.076.25c-.962.408-2.226.667-2.7-.344-.235-.5-.368-.972-.54-1.592-1.584-1.64.784-3.806 2.073-4.583-.187.4-.32.705-.4 1.017-.392 1.355.177 2.564-1.052 3.546.578 1.166.55 1.63 1.896 1.092.52-.208.946-.5 1.328-.844zm-.37 11.04c.73 2.52 1.97 4.997 3.346 7.08v.036c-.086.358-.186.707-.395.987-.984 1.316-3.485-.616-4.2-1.355-.792-.808-1.322-1.766-1.448-2.663-.092-.655-.003-.67.454-1.134l1.848-1.87.405-1.08zm46.576-20.232a1.53 1.53.0 0 1 .332.487 1.21 1.21.0 0 1 .136-.11l-.176-.384-.3.008zM42.03 24c-.128-.27-.2-.553-.192-.833-.472.377-.985.735-1.518.94.735-.657 1.734-2.205 2.458-2.694.82-.555 1.936-.447 2.894-.9-.327.297-.746.536-1.173.764.47.172.876.52 1.108 1.006a1.97 1.97.0 0 1 .18.633c.643-.2 1.275-.3 1.8-.304-1.9.536-3.94 1.8-5.34 3.448a4.43 4.43.0 0 1 .642-1.172 1.97 1.97.0 0 1-.868-.9zm-8.852-6.905a24.92 24.92.0 0 1-3.043.978c-.938 1.232-1.5 1.87-1.724 3.522-.254-1.625-.307-1.926.417-3.14-.2.106-.404.253-.684.492-1 .864-2.327 4.26-2.854 5.472.334-1.46 1.38-5.112 2.456-6.177.708-.7.87-.684 1.867-.778l3.565-.37zm22 3.542c.855.08 1.344.213 2.1-.166 1.427-.706 2.477-1.86 3.158-3.238-.417 1.645-1.255 3.043-2.994 3.663-.854.304-1.405-.01-2.274-.26zm-16.4.16c.322-1.427.894-2.8 3.1-3.865-2.937.735-3.487 1.97-3.1 3.865zM.7 28.47c.252-2.853.807-4.085 2.834-6.232C.98 24.03.346 24.845.7 28.47"/><path d="M42.4 24.452a.83.83.0 0 1 .39-1.1.83.83.0 0 1 1.103.39.82.82.0 0 1 .046.119c-.393.3-.753.635-1.055 1.033a.9.9.0 0 1-.484-.441m9.196-3.557a.61.61.0 0 1 .663-.558.62.62.0 0 1 .558.677.63.63.0 0 1-.056.203 5.36 5.36.0 0 0-.943.262.83.83.0 0 1-.222-.584" fill="#edd749"/></g></svg>