<svg id="Layer_1" xmlns="http://www.w3.org/2000/svg" xmlns:xlink="http://www.w3.org/1999/xlink" width="256" height="256" viewBox="0 0 256 256" enable-background="new 0 0 256 256"><g><g><path fill="#ff6384" d="M68.829 196.856c.448.56.728 1.288.728 1.96.0 1.736-1.456 3.08-3.192 3.08-.84.0-1.736-.336-2.408-1.064-2.128-2.408-5.208-3.864-8.288-3.864-7.336.0-12.768 5.6-12.768 13.384.0 7.728 5.432 13.384 12.768 13.384 3.08.0 6.16-1.344 8.288-3.808.672-.672 1.568-1.064 2.464-1.064 1.736.0 3.08 1.4 3.08 3.024.0.672-.224 1.4-.672 1.96-2.856 3.248-7.056 5.824-13.16 5.824-11.032.0-19.6-7.84-19.6-19.32s8.568-19.32 19.6-19.32C61.773 191.032 65.973 193.608 68.829 196.856z"/><path fill="#ff6384" d="M97.109 229.336c-1.68.0-2.968-1.344-2.968-2.968v-14.336c0-4.144-2.184-5.432-5.488-5.432-2.912.0-5.488 1.736-6.832 3.584v16.184c0 1.624-1.344 2.968-3.024 2.968-1.68.0-2.968-1.344-2.968-2.968v-32.144c0-1.568 1.288-2.912 3.08-2.912 1.568.0 2.912 1.344 2.912 2.912v11.424c1.792-2.128 5.264-4.368 9.576-4.368 5.824.0 8.736 3.08 8.736 8.568v16.52C100.133 227.992 98.789 229.336 97.109 229.336z"/><path fill="#ff6384" d="M127.18 229.336h-.336c-.784.0-2.688-.672-2.688-2.744v-.504c-1.96 2.296-5.152 3.584-8.68 3.584-4.424.0-9.464-2.968-9.464-8.96.0-6.216 5.04-8.792 9.464-8.792 3.584.0 6.776 1.176 8.68 3.472v-4.144c0-3.08-2.576-4.984-6.272-4.984-2.352.0-4.48.616-6.44 2.072-.336.224-.784.392-1.232.392-1.12.0-2.352-.896-2.352-2.352.0-.448.168-.952.448-1.288 2.128-2.688 7.112-3.808 10.528-3.808 5.992.0 11.312 2.52 11.312 9.8v15.288C130.147 227.992 128.804 229.336 127.18 229.336zM124.156 218.752c-1.344-1.792-3.808-2.688-6.384-2.688-3.192.0-5.656 1.792-5.656 4.76.0 2.856 2.464 4.704 5.656 4.704 2.576.0 5.04-.896 6.384-2.744V218.752z"/><path fill="#ff6384" d="M148.571 207.328c-2.408.224-4.704 1.232-6.16 3.304v15.736c0 1.624-1.344 2.968-2.968 2.968h-.112c-1.624.0-2.912-1.344-2.912-2.968v-21.84c0-1.568 1.288-2.912 3.08-2.912 1.568.0 2.912 1.344 2.912 2.912v1.4c1.456-1.96 3.584-4.312 6.44-4.312 1.624.0 2.632 1.12 2.632 2.576C151.483 205.984 150.251 207.104 148.571 207.328z"/><path fill="#ff6384" d="M165.427 229.672c-4.592.0-7-2.464-7-7v-15.456h-2.24c-1.4.0-2.576-1.176-2.576-2.688.0-1.4 1.176-2.576 2.576-2.576h2.24v-4.76c0-1.624 1.344-2.968 3.08-2.968 1.624.0 2.912 1.344 2.912 2.968v4.76h3.304c1.4.0 2.52 1.176 2.52 2.688.0 1.4-1.12 2.576-2.52 2.576h-3.304v13.944c0 2.072 1.176 3.192 2.576 3.192.392.0.896-.168 1.232-.168 1.624.0 2.632 1.12 2.632 2.576C170.859 228.552 169.235 229.672 165.427 229.672z"/><path fill="#ff6384" d="M178.307 229.616c-2.184.0-3.976-1.848-3.976-3.976.0-2.184 1.792-3.976 3.976-3.976 2.184.0 3.976 1.792 3.976 3.976C182.283 227.768 180.491 229.616 178.307 229.616z"/><path fill="#ff6384" d="M188.218 239.976c-3.472.0-6.16-.896-6.16-3.08.0-1.344 1.12-2.408 2.408-2.408.84.0 1.456.56 2.8.56 2.296.0 3.976-1.4 3.976-4.592v-25.928c0-1.568 1.288-2.912 3.08-2.912 1.568.0 2.912 1.344 2.912 2.912v25.928C197.233 236.28 194.209 239.976 188.218 239.976zM197.906 194.952c0 2.072-1.68 3.696-3.696 3.696s-3.696-1.624-3.696-3.696c0-2.016 1.68-3.64 3.696-3.64S197.906 192.936 197.906 194.952z"/><path fill="#ff6384" d="M214.089 229.672c-3.64.0-8.456-1.12-10.584-3.528-.336-.392-.56-.896-.56-1.456.0-1.4 1.232-2.52 2.576-2.52.448.0.952.112 1.344.392 2.072 1.4 4.872 2.408 7.448 2.408 3.528.0 5.264-1.512 5.264-3.584.0-5.264-16.352-1.456-16.352-11.872.0-4.424 3.864-8.232 10.752-8.232 3.64.0 7.728 1.12 9.576 3.248.336.392.504.84.504 1.344.0 1.288-1.12 2.296-2.408 2.296-.392.0-.84-.112-1.232-.336-1.736-1.176-4.032-1.904-6.44-1.904-3.024.0-4.928 1.456-4.928 3.304.0 4.76 16.296 1.176 16.296 11.928C225.345 225.976 221.369 229.672 214.089 229.672z"/></g></g><path fill="#36a2eb" d="M194.415 96.556c-22.368.439-17.709 14.598-33.473 18.18-16.014 3.638-18.542-39.111-34.552-39.111-16.012.0-19.559 41.525-39.608 70.034l-.571.808 42.985 24.813 65.22-37.65V96.556z"/><path fill="#ffce56" d="M194.415 95.267c-7.488-9.61-12.567-20.658-23.494-20.658-19.338.0-14.249 31.545-35.62 31.545-21.374.0-23.62-33.931-47.833-2.035-7.715 10.163-13.925 21.494-18.802 32.218l60.528 34.942 65.22-37.65V95.267z"/><path opacity=".8" fill="#fe6184" d="M63.974 108.334c7.338-20.32 10.504-36.778 24.513-36.778 21.37.0 26.459 60.038 44.778 53.93 18.318-6.105 16.283-38.668 44.779-38.668 5.423.0 10.962 3.323 16.371 8.699v38.112l-65.22 37.65-65.222-37.65V108.334z"/><path fill="#e7e9ed" d="M129.144 176l-69.291-40V56l69.291-40 69.292 40v80l-69.292 40zM67.994 131.301l61.15 35.3 61.151-35.3V60.7l-61.151-35.3-61.15 35.3V131.301z"/></svg>