<svg viewBox="0 0 500 500" xmlns="http://www.w3.org/2000/svg" xmlns:xlink="http://www.w3.org/1999/xlink"><clipPath id="a"><path d="m246.61 29.44s0 12.71 33.19 32.89c64.52 39.2 64.3 75.13 64.3 82.67 0 32-33.34 52.74-48.81 36 0 0 15.18-11.26 15.18-28.58 0 0-11.13 7.33-17 8.6 0 0 7.59-13.41 4.05-36.94 0 0-6.07 11.89-25.55 21.51 0 0 7.59-16.95.5-33.14 0 0 1.52 20.23-44.52 41.74s-31.87 43-31.87 43 9.17-9.74 24.76-2.9c21.08 9.26 12.56 46.42-21.34 46.42-33 0-54.67-35.89-54.67-63.91 0-11.59 1.26-32.91 22.19-56.36 16.66-18.65 37.19-28.49 41.6-49.11-22.82 21.14-64 34.94-88.44 71.13-22 32.5-14.84 75.49-10.88 88.72a145.49 145.49 0 0 0 139.41 103.67c80.29 0 146.29-64.28 146.29-144.61 0-121.6-115.62-134.5-148.39-160.8zm-19.46 148.86c-2.45.57-4.8-.46-8.71-1.64-3.65-1.12-4.95-.9-4.95-.9a61.38 61.38 0 0 1 7.74-4.44c3.89-1.79 7.21-1.88 8.75 1.67 1.02 2.34-.83 4.84-2.83 5.31z"/></clipPath><linearGradient id="b" gradientUnits="userSpaceOnUse" x1="322.07" x2="179.39" y1="315.36" y2="68.24"><stop offset="0" stop-color="#146cd0"/><stop offset="1" stop-color="#0fa1ea"/></linearGradient><g fill="#07c1f2"><path d="m70 450.93a29.92 29.92 0 0 1 -13.17-2.93 30.88 30.88 0 0 1 -10.42-8.2 38.83 38.83 0 0 1 -6.85-12.8 57.3 57.3 0 0 1 0-33.35 38.83 38.83 0 0 1 6.85-12.78 30.55 30.55 0 0 1 47.22 0 38.83 38.83 0 0 1 6.85 12.78 57.52 57.52 0 0 1 0 33.35 38.83 38.83 0 0 1 -6.85 12.78 31.07 31.07 0 0 1 -10.42 8.22 29.92 29.92 0 0 1 -13.21 2.93zm0-6.75a23.24 23.24 0 0 0 10.18-2.27 22.4 22.4 0 0 0 8.09-6.65 32.75 32.75 0 0 0 5.26-10.67 54.57 54.57 0 0 0 0-28.4 32.18 32.18 0 0 0 -5.26-10.62 22.64 22.64 0 0 0 -8.07-6.57 24.14 24.14 0 0 0 -20.44 0 22.82 22.82 0 0 0 -8 6.59 32.4 32.4 0 0 0 -5.28 10.62 53.74 53.74 0 0 0 0 28.4 33 33 0 0 0 5.28 10.67 22.58 22.58 0 0 0 8 6.65 23.09 23.09 0 0 0 10.24 2.25z"/><path d="m116.61 393.82h7.27v7.89a39.06 39.06 0 0 1 7.83-6.27 20.37 20.37 0 0 1 10.78-2.7 22.59 22.59 0 0 1 9 1.8 19.6 19.6 0 0 1 7.27 5.34 26.28 26.28 0 0 1 4.85 9 45.95 45.95 0 0 1 0 25.47 25.43 25.43 0 0 1 -4.95 9 20 20 0 0 1 -7.48 5.31 24.17 24.17 0 0 1 -9.32 1.78 20.46 20.46 0 0 1 -9.86-2.44 34 34 0 0 1 -8.14-6.13v28.7h-7.27zm24.59 50.46a17.2 17.2 0 0 0 6.83-1.34 13.79 13.79 0 0 0 5.33-4.07 19.92 19.92 0 0 0 3.48-7 36.42 36.42 0 0 0 1.26-10.21 34.56 34.56 0 0 0 -1.31-10 20.23 20.23 0 0 0 -3.66-7.08 14.9 14.9 0 0 0 -5.39-4.18 15.77 15.77 0 0 0 -6.54-1.4 17.43 17.43 0 0 0 -9.23 2.48 40 40 0 0 0 -8.09 6.7v27.06a34.41 34.41 0 0 0 8.3 6.75 18.23 18.23 0 0 0 9.02 2.29z"/><path d="m200.37 450.62a23.73 23.73 0 0 1 -9.28-1.86 21.38 21.38 0 0 1 -7.76-5.56 28.48 28.48 0 0 1 -5.33-9.08 35.72 35.72 0 0 1 -2-12.57 34.64 34.64 0 0 1 2.16-12.81 26.55 26.55 0 0 1 5.67-9 23.48 23.48 0 0 1 7.81-5.28 23 23 0 0 1 8.74-1.75 22 22 0 0 1 9 1.85 19.69 19.69 0 0 1 7.17 5.49 26.88 26.88 0 0 1 4.76 9.07 40.7 40.7 0 0 1 1.76 12.5v1.38h-39.76a27.23 27.23 0 0 0 1.41 9.13 20.89 20.89 0 0 0 3.79 6.7 16 16 0 0 0 12.32 5.61 18.11 18.11 0 0 0 10.18-2.6 25.15 25.15 0 0 0 7.14-7.55l4.53 3.61a29.41 29.41 0 0 1 -9 9.28 24.29 24.29 0 0 1 -13.31 3.44zm15.63-33.4a35.32 35.32 0 0 0 -1.41-7.24 18.73 18.73 0 0 0 -3-5.88 13.18 13.18 0 0 0 -4.8-3.86 15 15 0 0 0 -6.57-1.37 15.56 15.56 0 0 0 -5.82 1.11 15.06 15.06 0 0 0 -5.08 3.38 18.94 18.94 0 0 0 -3.86 5.69 26.32 26.32 0 0 0 -2.09 8.17z"/><path d="m236.81 393.82h7.26v8.76a41 41 0 0 1 9.31-6.93 24.31 24.31 0 0 1 11.93-2.91c5.49 0 9.63 1.44 12.39 4.33s4.15 6.94 4.15 12.16v40.2h-7.27v-38.86q0-5.88-2.68-8.74c-1.78-1.9-4.58-2.86-8.4-2.86a20.38 20.38 0 0 0 -10 2.58 46.1 46.1 0 0 0 -9.41 7.11v40.77h-7.26z"/></g><g fill="#077cdc"><path d="m328 450.72a41.45 41.45 0 0 1 -14.07-2.16 24.38 24.38 0 0 1 -15.62-16.06 42.29 42.29 0 0 1 -1.85-13v-48.2h17.21v47.83q0 8.55 3.43 13.09t11.16 4.53q7.58 0 10.95-4.53t3.38-13.09v-47.83h16.9v48.14a42.81 42.81 0 0 1 -1.85 13 25.44 25.44 0 0 1 -5.7 9.87 25 25 0 0 1 -9.82 6.24 41.55 41.55 0 0 1 -14.12 2.17z"/><path d="m375.09 449.43v-78.13h17.11v78.13z"/><path d="m432 450.93a45.53 45.53 0 0 1 -16.78-2.81 41.84 41.84 0 0 1 -12.44-7.55l8.66-11.29a32.25 32.25 0 0 0 8.89 5.72 26.06 26.06 0 0 0 10.67 2.27q7.79 0 11.31-3.89a14.18 14.18 0 0 0 3.53-9.92q0-6.66-3.42-10.39t-10.08-3.74a16.45 16.45 0 0 0 -7.65 1.88 21.44 21.44 0 0 0 -6.68 5.6l-11.08-3.46 3.07-42.05h47.42l-.87 13h-33.32l-1.5 17.32a17.61 17.61 0 0 1 5.88-3.37 28.24 28.24 0 0 1 9.9-1.47 28.56 28.56 0 0 1 10.95 2 21.67 21.67 0 0 1 12.83 13.6 32.69 32.69 0 0 1 1.63 10.52 29.74 29.74 0 0 1 -2.12 11.39 24.7 24.7 0 0 1 -6.11 8.86 27.89 27.89 0 0 1 -9.76 5.78 38.39 38.39 0 0 1 -12.93 2z"/></g><g clip-path="url(#a)"><path d="m246.61 29.44s0 12.71 33.19 32.89c64.52 39.2 64.3 75.13 64.3 82.67 0 32-33.34 52.74-48.81 36 0 0 15.18-11.26 15.18-28.58 0 0-11.13 7.33-17 8.6 0 0 7.59-13.41 4.05-36.94 0 0-6.07 11.89-25.55 21.51 0 0 7.59-16.95.5-33.14 0 0 1.52 20.23-44.52 41.74s-31.87 43-31.87 43 9.17-9.74 24.76-2.9c21.08 9.26 12.56 46.42-21.34 46.42-33 0-54.67-35.89-54.67-63.91 0-11.59 1.26-32.91 22.19-56.36 16.66-18.65 37.19-28.49 41.6-49.11-22.82 21.14-64 34.94-88.44 71.13-22 32.5-14.84 75.49-10.88 88.72a145.49 145.49 0 0 0 139.41 103.67c80.29 0 146.29-64.28 146.29-144.61 0-121.6-115.62-134.5-148.39-160.8z" fill="url(#b)"/><g fill="#07c1f2"><path d="m238.26 181.35c25.61-13.21 33.82-35.83 33.82-35.83s7.59-17 .5-33.16c0 0 1.52 20.26-44.56 41.78s-31.89 43-31.89 43a20.12 20.12 0 0 1 9.25-4.82c7.62-2.01 19.52-4.09 32.88-10.97z" opacity=".6"/><path d="m239.58 190.72c19.79 0 42.69-9.2 54-29.75a44.88 44.88 0 0 0 4.13-13.32c1.25-7.82 1.38-13.63-.06-24.19 0 0-3.75 10.5-25.59 22.06-7.93 4.2-18.09 8.4-31.53 12.48-52.06 15.8-44.42 39.17-44.42 39.17 8.22-5.43 8.27-6.45 43.47-6.45z" opacity=".4"/><path d="m239.58 190.72c18.2 0 42.94 1 55.79-9.75 7.88-6.6 15.07-15.33 15.21-28.64 0 0-10.78 7.12-17 8.65-8.57 2.11-24 5.36-38.11 4.56-47.89-2.72-59.36 31.63-59.36 31.63 6.62-6.1 14.66-6.45 43.47-6.45z" opacity=".2"/><path d="m238.26 181.35c25.61-13.21 33.82-35.83 33.82-35.83-7.93 4.2-18.09 8.4-31.53 12.48-52.06 15.8-44.42 39.17-44.42 39.17a20.12 20.12 0 0 1 9.25-4.82c7.62-2.04 19.52-4.12 32.88-11z" opacity=".4"/><path d="m205.38 192.35c7.58-2 19.52-4.12 32.88-11a75 75 0 0 0 20.66-15.7c-1.15 0-2.3-.05-3.43-.11-47.89-2.72-59.36 31.63-59.36 31.63a18.59 18.59 0 0 1 7.35-4.25c.59-.19 1.21-.39 1.9-.57z"/><path d="m395 190.24c0-24.25-4.61-44.17-12.23-60.74.72 2.19 15.45 48.23-21.42 85.1-21 21.05-56.86 28.34-85.66 5.32 0 0 3.65 57.78-64.78 66.3-44.7 5.56-79.91-22.92-95.13-59.22-10.62-25.23-11.6-54.22.55-78.16-17.16 31.51-10.68 69.92-7 82.29a145.49 145.49 0 0 0 139.38 103.72c80.29 0 146.29-64.28 146.29-144.61z" opacity=".4"/><path d="m380.22 253.67c-7.59 2.05-67.05 16.2-104.54-33.75 0 0 17.46 67.71-56.74 111.88a147.07 147.07 0 0 0 161.28-78.13z" opacity=".6"/><path d="m347.94 296.48c-46.5-23.93-72.26-76.56-72.26-76.56 20.72 50.53 11.74 90 2.47 112a146.8 146.8 0 0 0 69.79-35.44z" opacity=".7"/></g></g></svg>