<svg xmlns="http://www.w3.org/2000/svg" xmlns:xlink="http://www.w3.org/1999/xlink" preserveAspectRatio="xMidYMid" width="724" height="561" viewBox="0 0 724 561"><defs><linearGradient id="gradientFill-1" x1="0" x2="1" y1="0" y2="1" gradientUnits="objectBoundingBox" spreadMethod="pad"><stop offset="0" stop-color="rgb(203,206,208)" stop-opacity="1"/><stop offset="1" stop-color="rgb(132,131,139)" stop-opacity="1"/></linearGradient><linearGradient id="gradientFill-2" x1="0" x2="1" y1="0" y2="1" gradientUnits="objectBoundingBox" spreadMethod="pad"><stop offset="0" stop-color="rgb(39,109,195)" stop-opacity="1"/><stop offset="1" stop-color="rgb(22,92,170)" stop-opacity="1"/></linearGradient></defs><path d="M361.453 485.937C162.329 485.937.906 377.828.906 244.469.906 111.109 162.329 3 361.453 3 560.578 3 722 111.109 722 244.469 722 377.828 560.578 485.937 361.453 485.937zM416.641 97.406C265.289 97.406 142.594 171.314 142.594 262.484 142.594 353.654 265.289 427.562 416.641 427.562 567.992 427.562 679.687 377.033 679.687 262.484 679.687 147.971 567.992 97.406 416.641 97.406z" fill="url(#gradientFill-1)" fill-rule="evenodd"/><path d="M550 377C550 377 571.822 383.585 584.5 390 588.899 392.226 596.51 396.668 602 402.5 607.378 408.212 610 414 610 414l86 145L557 559.062 492 437C492 437 478.69 414.131 470.5 407.5 463.668 401.969 460.755 4e2 454 4e2 449.298 4e2 420.974 4e2 420.974 4e2L421 558.974 298 559.026V152.938H545C545 152.938 657.5 154.967 657.5 262 657.5 369.033 550 377 550 377zM496.5 241.024 422.037 240.976 422 310.026 496.5 310.002C496.5 310.002 531 309.895 531 274.877 531 239.155 496.5 241.024 496.5 241.024z" fill="url(#gradientFill-2)" fill-rule="evenodd"/></svg>