<svg xmlns="http://www.w3.org/2000/svg" height="128" width="128" viewBox="0 0 128 128"><path d="M62.271 10.88C62.082 10.99 61.289 12.128 60.508 13.409 58.548 16.626 58.526 16.628 55.893 13.857 54.18 12.055 53.766 11.725 53.214 11.729 52.855 11.731 52.402 11.853 52.206 12 52.011 12.147 51.458 13.317 50.978 14.6 49.879 17.539 49.826 17.634 49.217 17.751 48.842 17.822 48.12 17.42 46.389 16.177 45.111 15.258 43.857 14.507 43.603 14.507 42.549 14.507 42.252 15.083 41.75 18.1 41.112 21.936 41.134 21.923 37.676 20.352 36.28 19.719 34.956 19.2 34.733 19.2 34.51 19.2 34.087 19.44 33.794 19.733 33.262 20.266 33.261 20.268 33.406 23.201L33.552 26.137 32.997 26.434C32.505 26.697 32.166 26.665 29.988 26.15 27.145 25.479 26.545 25.497 25.969 26.272L25.548 26.838 26.113 29.259C26.423 30.59 26.722 31.872 26.778 32.107 26.833 32.341 26.738 32.716 26.566 32.939 26.282 33.306 25.98 33.339 23.349 33.299 18.896 33.229 18.643 33.611 20.483 37.627 21.068 38.902 21.547 40.06 21.547 40.199 21.547 40.933 20.962 41.2 18.449 41.61 17.043 41.839 15.821 42.027 15.733 42.027 15.645 42.027 15.381 42.219 15.147 42.453 14.382 43.218 14.599 43.936 16.334 46.385 18.495 49.435 18.491 49.446 14.921 50.812 10.861 52.365 10.779 52.748 13.87 55.68 16.749 58.41 16.752 58.37 13.493 60.419 11.024 61.97 10.986 62.007 10.923 62.848 10.847 63.871 10.865 63.889 13.813 65.69 16.728 67.47 16.728 67.524 13.867 70.231 10.79 73.141 10.885 73.566 14.948 75.099 18.498 76.438 18.503 76.454 16.338 79.504 15.111 81.233 14.72 81.953 14.72 82.487 14.72 83.486 15.24 83.741 18.347 84.263 20.964 84.704 21.547 84.963 21.547 85.685 21.547 85.833 21.067 87.001 20.48 88.279 18.654 92.256 18.862 92.587 23.184 92.587 27.209 92.587 27.102 92.464 26.235 96.094 25.581 98.83 25.571 99.354 26.163 99.945 26.616 100.399 27.47 100.348 30.141 99.709 32.181 99.222 32.539 99.188 33.012 99.441L33.552 99.73 33.406 102.665C33.261 105.599 33.262 105.601 33.794 106.134 34.087 106.427 34.516 106.667 34.746 106.667 34.976 106.667 36.3 106.151 37.689 105.52 41.136 103.955 41.114 103.942 41.75 107.766 42.254 110.797 42.548 111.36 43.624 111.36 43.891 111.36 45.118 110.64 46.352 109.76 48.519 108.214 49.081 107.972 49.658 108.339 49.807 108.433 50.385 109.703 50.942 111.161 51.761 113.305 52.061 113.863 52.517 114.081 53.385 114.497 53.922 114.163 55.962 111.941 58.425 109.258 58.526 109.271 60.537 112.53 62.758 116.128 63.333 116.12 65.61 112.457 67.572 109.301 67.549 109.303 70.201 112.073 71.962 113.911 72.337 114.204 72.931 114.204 73.31 114.204 73.763 114.062 73.936 113.888 74.11 113.714 74.686 112.429 75.216 111.033 75.746 109.636 76.295 108.42 76.437 108.33 76.998 107.973 77.579 108.224 79.743 109.76 81.017 110.665 82.216 111.36 82.501 111.36 83.559 111.36 83.941 110.609 84.381 107.657 84.757 105.14 84.833 104.899 85.328 104.648 85.815 104.401 86.107 104.484 88.391 105.521 89.78 106.151 91.104 106.667 91.334 106.667 91.564 106.667 92 106.42 92.301 106.118L92.85 105.57 92.699 102.755C92.555 100.067 92.568 99.923 92.997 99.535 93.438 99.136 93.483 99.138 95.949 99.701 98.935 100.383 99.492 100.401 100.053 99.84 100.601 99.292 100.595 99.172 99.845 96.009 99.004 92.461 98.891 92.587 102.933 92.587 105.688 92.587 105.995 92.548 106.346 92.161 106.932 91.513 106.793 90.771 105.614 88.258 105.019 86.992 104.536 85.84 104.54 85.698 104.56 84.951 105.147 84.696 107.86 84.255 109.52 83.986 110.762 83.674 110.987 83.471 111.741 82.79 111.464 81.904 109.743 79.491 107.586 76.467 107.595 76.438 111.049 75.165 115.185 73.641 115.303 73.133 112.208 70.192 109.341 67.468 109.34 67.483 112.48 65.555 116.276 63.225 116.282 62.7 112.547 60.382 109.335 58.389 109.337 58.417 112.216 55.683 115.304 52.749 115.22 52.365 111.159 50.812 107.575 49.441 107.564 49.407 109.742 46.418 111.039 44.638 111.36 44.047 111.36 43.437 111.36 42.371 110.882 42.132 107.738 41.624 105.111 41.2 104.533 40.942 104.533 40.195 104.533 40.053 105.013 38.91 105.6 37.653 106.749 35.192 106.91 34.207 106.26 33.618 105.911 33.302 105.443 33.257 102.939 33.298 100.319 33.342 99.984 33.305 99.621 32.94 99.224 32.541 99.228 32.485 99.848 29.898 100.608 26.728 100.611 26.651 99.986 26.064 99.352 25.468 98.956 25.478 96.045 26.163 93.924 26.663 93.573 26.696 93.091 26.438L92.544 26.145 92.695 23.219 92.847 20.294 92.3 19.747C91.999 19.446 91.572 19.2 91.35 19.2 91.129 19.2 89.812 19.723 88.424 20.361 86.106 21.428 85.857 21.499 85.356 21.237 84.856 20.975 84.773 20.717 84.346 18.11 83.853 15.094 83.548 14.507 82.477 14.507 82.223 14.507 80.964 15.262 79.679 16.185 77.569 17.701 77.286 17.844 76.76 17.661 76.325 17.509 76.072 17.178 75.763 16.355 75.534 15.749 75.096 14.581 74.788 13.76 74.166 12.104 73.819 11.733 72.887 11.733 72.367 11.733 71.896 12.107 70.208 13.86 67.555 16.616 67.545 16.615 65.594 13.415 64.814 12.136 63.999 10.994 63.782 10.878 63.294 10.616 62.72 10.617 62.271 10.88M64.689 20.515C67 22.16 65.771 26.027 62.937 26.027 60.187 26.027 58.802 22.714 60.766 20.833 61.874 19.771 63.463 19.642 64.689 20.515M61.783 30.729C63.298 31.305 63.92 30.959 67.379 27.625L69.978 25.119 71.078 25.265C74.528 25.723 81.39 28.737 85.333 31.526 88.956 34.09 93.771 39.312 95.823 42.903L96.262 43.672 94.318 48.052C93.248 50.461 92.373 52.685 92.373 52.996 92.373 53.713 92.843 54.847 93.296 55.222 93.487 55.381 95.302 56.255 97.329 57.164L101.013 58.818 101.158 59.755C101.345 60.976 101.37 63.975 101.2 64.827L101.067 65.493H98.964C96.525 65.493 96.713 65.275 96.581 68.267 96.485 70.436 95.961 71.635 94.769 72.411 92.827 73.678 89.62 73.448 88.26 71.945 88.051 71.714 87.645 70.553 87.357 69.364 86.516 65.891 85.386 63.941 83.116 62.044 82.399 61.445 81.813 60.886 81.813 60.801 81.813 60.717 82.601 60.053 83.565 59.328 87.075 56.682 89.093 53.602 89.315 50.551 89.738 44.732 85.102 39.308 78.206 37.55 76.571 37.133 75.873 37.12 55.646 37.12 44.166 37.12 34.773 37.045 34.773 36.954 34.773 36.739 37.324 34.263 38.827 33.021 42.954 29.609 48.315 26.924 53.867 25.49L55.787 24.993 58.515 27.759C60.016 29.28 61.487 30.616 61.783 30.729M27.432 48.526C28.689 49.349 29.204 51.417 28.462 52.66 27.314 54.584 24.406 54.665 23.257 52.805 21.586 50.103 24.804 46.804 27.432 48.526M101.482 48.631C104.77 50.636 102.222 55.568 98.702 54.011 96.352 52.971 96.277 49.759 98.575 48.587 99.534 48.098 100.636 48.115 101.482 48.631M37.12 60.907V73.173H31.698 26.276L25.846 71.307C25 67.632 24.644 63.83 24.857 60.716L25.006 58.528 28.734 56.856C31.073 55.808 32.577 55.009 32.771 54.712 33.619 53.419 33.538 52.495 32.348 49.867L31.792 48.64H34.456 37.12V60.907M68.34 49.174C70.662 49.778 71.889 51.007 71.892 52.73 71.894 53.995 71.267 54.789 69.712 55.491 68.611 55.989 68.436 56.001 61.493 56.069L54.4 56.137V52.495 48.853H60.755C65.719 48.853 67.38 48.923 68.34 49.174M65.944 66.776C67.095 67.096 68.456 68.096 69.154 69.135 69.887 70.227 70.316 71.647 71.332 76.351 72.19 80.327 72.742 81.627 74.288 83.319 76.203 85.414 75.759 85.333 85.325 85.333 89.906 85.333 93.653 85.406 93.653 85.496 93.653 85.657 90.498 89.387 90.362 89.387 90.323 89.387 88.675 89.042 86.7 88.62 81.123 87.429 80.922 87.569 79.642 93.546L78.819 97.386 78.076 97.752C76.836 98.364 72.806 99.624 70.717 100.054 67.265 100.764 63.508 101.004 60.206 100.725 54.577 100.248 47.123 98.064 46.832 96.805 46.77 96.538 46.395 94.81 46 92.964 45.604 91.118 45.123 89.367 44.931 89.073 44.008 87.665 43.037 87.578 38.767 88.523 37.15 88.881 35.739 89.173 35.631 89.173 35.428 89.173 32.427 85.703 32.427 85.469 32.427 85.396 39.555 85.311 48.267 85.281L64.107 85.227 64.164 79.6C64.204 75.627 64.149 73.886 63.977 73.68 63.785 73.448 62.763 73.387 59.067 73.387H54.4V69.973 66.56L59.787 66.561C62.749 66.562 65.52 66.659 65.944 66.776M41.536 92.365C44.055 93.9 42.847 97.922 39.868 97.919 36.813 97.917 35.681 93.932 38.284 92.344 39.145 91.819 40.658 91.829 41.536 92.365M87.662 92.533C88.897 93.438 89.308 95.321 88.543 96.575 86.534 99.87 81.51 97.251 83.188 93.784 84.013 92.081 86.206 91.467 87.662 92.533" stroke="none" fill="#000" fill-rule="evenodd"/></svg>