<svg fill-rule="evenodd" height="64" stroke-linejoin="round" stroke-miterlimit="1.414" width="64" xmlns="http://www.w3.org/2000/svg"><g fill-rule="nonzero"><path d="m27.733 34.453 8.64-5.013 8.533 5.013-8.533 4.907-8.64-4.8zm-25.92-14.826 34.56-19.627 25.707 14.613-8.533 14.827-17.173-9.813-25.92 14.72z" fill="#f6bd3a"/><path d="m27.733 54.08v-9.813l8.533-4.907 8.64-4.907v9.813l-8.533 4.907v9.813l-8.64 5.014zm0-19.627-8.64-4.907-8.64 4.8v-9.813l25.92-14.72v19.627zm25.707-9.92v-4.907l8.64-5.013.107 9.813-8.64 5.013z" fill="#eb8c23"/><path d="m19.093 58.773v-29.226l8.533-4.8.107 9.707 8.64 4.8v9.92l-8.64-4.587V64zm-13.013-26.986-4.267-2.56v-9.6l8.64 4.907v9.813zm30.293-12.16v-9.814l17.067 9.813.107 9.813-17.173-9.813z" fill="#e35a2b"/></g></svg>